<?xml version="1.0" encoding="UTF-8"?>
<svg id="Layer_1" data-name="Layer 1" xmlns="http://www.w3.org/2000/svg" viewBox="0 0 700 700">
  <defs>
    <style>
      .cls-1 {
        fill: #e7e0cd;
      }
    </style>
  </defs>
  <g>
    <path class="cls-1" d="M327.51,51.05c-52.16,142.43,112.31,178.78,210.7,260.48,74.99,77.41,82.96,162.73,19.41,266.87-27.08,43.14-58.96,61.92-74.03,70.44-2.74,1.55,2.8-13.2,12.34-37.29,85.31-201.96-59.58-202.97-176.85-276.23-137.46-76.41-76.35-254.78,8.43-284.27Z"/>
    <path class="cls-1" d="M102.75,268.8c25.98,30.16,49.26,83.38,94.22,96.37,41.52,22.52,126.88,21.18,167.64,37.76,51.33,13.83,88.34,85.66,27.48,121.38-43.3,25.08-139.65-2.56-184.13-34.1-92.19-45.66-118.2-151.2-105.21-221.42Z"/>
  </g>
  <path class="cls-1" d="M142.64,499.38c-1.36-4.6,13.64,11.12,44.67,29.1,52.23,25.28,164.51,55.67,229.87,7.46,45.14-35.56,32.57-99.29,40.02-87.59,130.98,195.95-257.33,296.33-314.56,51.04Z"/>
</svg>