<?xml version="1.0" encoding="UTF-8"?>
<svg id="Layer_1" data-name="Layer 1" xmlns="http://www.w3.org/2000/svg" viewBox="0 0 600 500">
  <defs>
    <style>
      .cls-1 {
        fill: #fff;
      }
    </style>
  </defs>
  <g>
    <g>
      <path class="cls-1" d="M276.02,37.8c-19.51,53.28,42.01,66.88,78.82,97.45,28.05,28.96,31.04,60.88,7.26,99.84-10.13,16.14-22.06,23.16-27.69,26.35-1.02.58,1.05-4.94,4.62-13.95,31.91-75.55-22.29-75.93-66.16-103.34-51.42-28.59-28.56-95.31,3.15-106.35Z"/>
      <path class="cls-1" d="M191.94,119.26c9.72,11.28,18.43,31.19,35.25,36.05,15.53,8.43,47.47,7.92,62.71,14.13,19.2,5.17,33.05,32.05,10.28,45.41-16.2,9.38-52.24-.96-68.88-12.76-34.49-17.08-44.22-56.56-39.36-82.83Z"/>
    </g>
    <path class="cls-1" d="M209.71,207.45c-.51-1.72,5.1,4.16,16.71,10.88,19.54,9.46,61.54,20.83,85.99,2.79,16.89-13.3,12.19-37.15,14.97-32.77,49,73.31-96.27,110.86-117.68,19.09Z"/>
  </g>
  <g>
    <path class="cls-1" d="M61.65,380.18c0-.44.24-.66.71-.66h31.96c.48,0,.71.22.71.66v3.12c0,.24-.06.4-.18.48-.12.08-.3.12-.53.12h-12.06c-.24,0-.41.04-.5.12-.1.08-.15.24-.15.48v38.75c0,.52-.24.78-.71.78h-4.28c-.48,0-.71-.26-.71-.78v-38.69c0-.28-.04-.46-.12-.54-.08-.08-.24-.12-.48-.12h-12.95c-.24,0-.42-.04-.53-.12-.12-.08-.18-.24-.18-.48v-3.12Z"/>
    <path class="cls-1" d="M112.29,379.7c.1-.12.29-.18.56-.18h26.67c.4,0,.59.22.59.66v3.06c0,.48-.26.72-.77.72h-20.73c-.32,0-.53.05-.62.15-.1.1-.15.29-.15.57v14.04c0,.44.22.66.65.66h15.38c.44,0,.65.22.65.66v3.18c0,.36-.22.54-.65.54h-15.38c-.44,0-.65.22-.65.66v14.57c0,.24.04.4.12.48.08.08.24.12.48.12h21.8c.24,0,.41.04.5.12.1.08.15.24.15.48v3.18c0,.44-.22.66-.65.66h-27.27c-.32,0-.53-.06-.65-.18-.12-.12-.18-.34-.18-.66v-42.82c0-.32.05-.54.15-.66Z"/>
    <path class="cls-1" d="M179.77,380.6c2.36,1.12,4.31,2.62,5.85,4.5,1.54,1.88,2.47,3.92,2.79,6.12l.06.42c0,.16-.05.28-.15.36-.1.08-.21.12-.33.12l-4.46.36h-.12c-.12,0-.22-.05-.3-.15-.08-.1-.14-.25-.18-.45-.59-2.6-1.82-4.68-3.68-6.24-1.86-1.56-4.12-2.34-6.77-2.34-4.16,0-7.34,1.55-9.53,4.65-2.2,3.1-3.3,7.73-3.3,13.88s1.1,10.59,3.3,13.64,5.47,4.59,9.83,4.59c2.81,0,5.16-.69,7.04-2.07,1.88-1.38,3.4-3.55,4.54-6.51.08-.28.32-.36.71-.24l3.5.84c.28.08.38.36.3.84-.59,2-1.62,3.89-3.09,5.67-1.47,1.78-3.33,3.23-5.58,4.35-2.26,1.12-4.81,1.68-7.66,1.68-3.92,0-7.29-.92-10.1-2.76-2.81-1.84-4.97-4.48-6.48-7.92-1.51-3.44-2.26-7.52-2.26-12.24s.74-8.79,2.23-12.21c1.48-3.42,3.62-6.04,6.42-7.86,2.79-1.82,6.11-2.73,9.95-2.73,2.61,0,5.1.56,7.46,1.68Z"/>
    <path class="cls-1" d="M212.7,403.21c-.16,0-.28.05-.36.15-.08.1-.12.21-.12.33v19.43c0,.32-.08.55-.24.69-.16.14-.42.21-.77.21h-3.86c-.32,0-.53-.06-.65-.18-.12-.12-.18-.34-.18-.66v-42.82c0-.56.24-.84.71-.84h4.28c.48,0,.71.26.71.78v17.63c0,.28.05.47.15.57.1.1.27.15.51.15h19.48c.4,0,.59-.24.59-.72v-17.69c0-.48.22-.72.65-.72h4.34c.28,0,.46.06.56.18.1.12.15.34.15.66v42.82c0,.56-.28.84-.83.84h-3.86c-.36,0-.61-.07-.77-.21-.16-.14-.24-.37-.24-.69v-19.37c0-.36-.18-.54-.53-.54h-19.72Z"/>
    <path class="cls-1" d="M291.89,379.52c.24,0,.41.05.5.15.1.1.15.29.15.57v43.06c0,.48-.26.72-.77.72h-2.91c-.32,0-.56-.03-.74-.09-.18-.06-.35-.19-.5-.39l-22.93-33.65c-.16-.28-.31-.4-.45-.36-.14.04-.21.18-.21.42v33.29c0,.52-.28.78-.83.78h-3.33c-.52,0-.77-.26-.77-.78v-42.88c0-.32.05-.54.15-.66.1-.12.31-.18.62-.18h3.39c.32,0,.55.04.71.12.16.08.34.24.53.48l22.28,32.93c.2.24.38.36.53.36.24,0,.36-.18.36-.54v-32.63c0-.48.24-.72.71-.72h3.5Z"/>
    <path class="cls-1" d="M319.83,421.99c-2.83-1.76-5-4.34-6.5-7.74-1.5-3.4-2.26-7.5-2.26-12.29s.76-8.99,2.29-12.45c1.52-3.46,3.7-6.09,6.53-7.89,2.83-1.8,6.19-2.7,10.07-2.7s7.18.9,10.01,2.7c2.83,1.8,5,4.42,6.5,7.86,1.5,3.44,2.26,7.58,2.26,12.42s-.75,8.9-2.26,12.29c-1.51,3.4-3.67,5.99-6.5,7.77-2.83,1.78-6.19,2.67-10.07,2.67s-7.24-.88-10.07-2.64ZM339.61,415.75c2.12-3,3.18-7.6,3.18-13.79s-1.08-11.01-3.24-14.06-5.36-4.59-9.59-4.59-7.55,1.54-9.71,4.62c-2.16,3.08-3.24,7.76-3.24,14.03s1.08,10.8,3.24,13.79c2.16,3,5.41,4.5,9.77,4.5s7.47-1.5,9.59-4.5Z"/>
    <path class="cls-1" d="M367.98,379.52h4.28c.47,0,.71.26.71.78v38.68c0,.24.04.4.12.48.08.08.24.12.48.12h20.55c.24,0,.42.04.54.12.12.08.18.24.18.48v3.18c0,.44-.24.66-.71.66h-26.02c-.32,0-.54-.06-.65-.18-.12-.12-.18-.34-.18-.66v-42.82c0-.56.24-.84.71-.84Z"/>
    <path class="cls-1" d="M414.76,421.99c-2.83-1.76-5-4.34-6.5-7.74-1.5-3.4-2.26-7.5-2.26-12.29s.76-8.99,2.29-12.45c1.52-3.46,3.7-6.09,6.53-7.89,2.83-1.8,6.19-2.7,10.07-2.7s7.18.9,10.01,2.7c2.83,1.8,5,4.42,6.5,7.86,1.5,3.44,2.26,7.58,2.26,12.42s-.75,8.9-2.26,12.29c-1.51,3.4-3.67,5.99-6.5,7.77-2.83,1.78-6.19,2.67-10.07,2.67s-7.24-.88-10.07-2.64ZM434.54,415.75c2.12-3,3.18-7.6,3.18-13.79s-1.08-11.01-3.24-14.06-5.36-4.59-9.59-4.59-7.55,1.54-9.71,4.62c-2.16,3.08-3.24,7.76-3.24,14.03s1.08,10.8,3.24,13.79c2.16,3,5.41,4.5,9.77,4.5s7.47-1.5,9.59-4.5Z"/>
    <path class="cls-1" d="M468.9,421.9c-2.77-1.82-4.9-4.43-6.39-7.83-1.49-3.4-2.23-7.44-2.23-12.12s.76-8.88,2.29-12.36c1.52-3.48,3.69-6.13,6.5-7.95,2.81-1.82,6.1-2.73,9.86-2.73,2.69,0,5.22.56,7.57,1.68,2.36,1.12,4.3,2.6,5.82,4.44s2.44,3.8,2.76,5.88v.36c0,.16-.03.28-.09.36-.06.08-.19.16-.39.24l-4.28.66h-.12c-.24,0-.42-.2-.54-.6-.44-2.44-1.64-4.49-3.62-6.15-1.98-1.66-4.38-2.49-7.19-2.49-4.08,0-7.21,1.56-9.39,4.68-2.18,3.12-3.27,7.66-3.27,13.61s1.09,10.91,3.27,14c2.18,3.1,5.35,4.65,9.5,4.65,2.42,0,4.49-.54,6.24-1.62,1.74-1.08,3.06-2.46,3.95-4.14.89-1.68,1.4-3.38,1.51-5.1v-3.72c0-.36-.2-.54-.59-.54h-9.68c-.44,0-.65-.2-.65-.6v-2.58c0-.36.2-.54.59-.54l14.73.06c.59,0,.89.24.89.72v21.05c0,.52-.24.78-.71.78h-1.37c-.32,0-.55-.04-.71-.12-.16-.08-.28-.28-.36-.6l-.65-5.58c-.04-.16-.11-.24-.21-.24s-.21.1-.33.3c-1.27,2.04-2.96,3.69-5.08,4.95-2.12,1.26-4.74,1.89-7.87,1.89-3.76,0-7.03-.91-9.8-2.73Z"/>
    <path class="cls-1" d="M544.31,379.76c.1.16.07.36-.09.6l-14.14,23.87c-.16.24-.26.49-.3.75-.04.26-.06.67-.06,1.23v16.79c0,.36-.09.62-.27.78-.18.16-.47.24-.86.24h-3.56c-.63,0-.95-.3-.95-.9v-16.67c0-.36-.03-.64-.09-.84-.06-.2-.19-.46-.39-.78l-14.32-24.35c-.12-.2-.18-.36-.18-.48,0-.32.28-.48.83-.48h4.28c.36,0,.6.05.74.15.14.1.31.29.5.57l11.05,19.19c.24.48.46.72.65.72.16,0,.38-.2.65-.6l10.99-19.31c.16-.28.32-.47.47-.57.16-.1.42-.15.77-.15h3.68c.28,0,.46.08.56.24Z"/>
  </g>
  <g>
    <path class="cls-1" d="M59.68,364.77c-.35-.38-.53-.89-.53-1.51v-73.54c0-.63.12-1.08.37-1.36.24-.28.68-.42,1.31-.42h17.76c.7,0,1.21.1,1.52.31.32.21.54.59.68,1.15l18.5,49.23c.21.56.46.83.74.83s.53-.31.74-.94l17.97-48.61c.35-1.32,1.05-1.98,2.1-1.98h18.39c.98,0,1.47.56,1.47,1.67v73.54c0,.77-.18,1.32-.53,1.67-.35.35-.95.52-1.79.52h-11.25c-.7,0-1.21-.14-1.52-.42-.32-.28-.47-.76-.47-1.46v-54.55c0-.42-.1-.63-.32-.63-.07,0-.25.24-.53.73l-19.97,54.76c-.28,1.04-.98,1.56-2.1,1.56h-7.46c-1.12,0-1.89-.52-2.31-1.56l-19.76-54.14c-.07-.49-.25-.73-.53-.73-.21,0-.32.28-.32.83v53.93c0,.63-.12,1.06-.37,1.3-.25.25-.72.37-1.42.37h-8.93c-.63,0-1.12-.19-1.47-.57Z"/>
    <path class="cls-1" d="M234.56,288.88c0,.28-.11.59-.32.94l-24.8,40.68c-.35.49-.56.99-.63,1.51-.07.52-.1,1.58-.1,3.18v27.85c0,.83-.19,1.43-.58,1.77-.39.35-1.07.52-2.05.52h-10.83c-.77,0-1.31-.16-1.63-.47-.32-.31-.47-.82-.47-1.51v-28.37c0-.76-.07-1.37-.21-1.83-.14-.45-.42-1.03-.84-1.72l-25.01-41.31c-.28-.35-.42-.69-.42-1.04,0-.76.59-1.15,1.79-1.15h12.93c.77,0,1.33.1,1.68.31.35.21.74.66,1.16,1.36l16.92,29.31c.42.77.77,1.15,1.05,1.15.21,0,.56-.35,1.05-1.04l16.71-29.41c.35-.69.7-1.15,1.05-1.36.35-.21.91-.31,1.68-.31h10.51c.91,0,1.37.31,1.37.94Z"/>
    <path class="cls-1" d="M256.1,289.61c0-1.11.59-1.67,1.79-1.67h59.06c1.19,0,1.79.56,1.79,1.67v8.14c0,.97-.56,1.46-1.68,1.46h-20.18c-.42,0-.72.07-.89.21-.18.14-.26.42-.26.83v63.31c0,1.18-.53,1.77-1.58,1.77h-12.51c-.98,0-1.47-.56-1.47-1.67v-63.21c0-.49-.09-.82-.26-.99-.18-.17-.47-.26-.89-.26h-21.12c-.63,0-1.09-.1-1.37-.31-.28-.21-.42-.59-.42-1.15v-8.14Z"/>
    <path class="cls-1" d="M361.83,331.23c-.84,0-1.26.38-1.26,1.15v30.88c0,1.39-.81,2.09-2.42,2.09h-11.14c-.77,0-1.3-.16-1.58-.47-.28-.31-.42-.78-.42-1.41v-73.74c0-1.18.53-1.77,1.58-1.77h12.51c.98,0,1.47.56,1.47,1.67v28.06c0,1.11.49,1.67,1.47,1.67h27.75c.98,0,1.47-.52,1.47-1.56v-28.16c0-1.11.49-1.67,1.47-1.67h12.51c1.05,0,1.58.59,1.58,1.77v73.74c0,1.25-.67,1.88-2,1.88h-11.14c-.84,0-1.46-.16-1.84-.47-.39-.31-.58-.85-.58-1.62v-30.88c0-.76-.42-1.15-1.26-1.15h-28.17Z"/>
    <path class="cls-1" d="M451.58,287.94c.98,0,1.47.56,1.47,1.67v73.43c0,.83-.19,1.43-.58,1.77-.39.35-1.04.52-1.94.52h-10.93c-.84,0-1.4-.14-1.68-.42-.28-.28-.42-.76-.42-1.46v-73.74c0-1.18.53-1.77,1.58-1.77h12.51Z"/>
    <path class="cls-1" d="M529.72,289.87c4.38,1.98,7.99,4.68,10.83,8.08,2.84,3.41,4.61,7.2,5.31,11.37.07.35.11.77.11,1.25,0,.42-.09.7-.26.83-.18.14-.47.25-.89.31l-11.98.83c-.49,0-.82-.09-1-.26-.18-.17-.33-.57-.47-1.2-.84-4.03-2.59-7.25-5.25-9.65-2.66-2.4-6.06-3.6-10.19-3.6-12.54,0-18.81,9.53-18.81,28.58,0,9.67,1.58,16.81,4.73,21.43,3.15,4.63,7.95,6.94,14.4,6.94,4.48,0,8.25-1.09,11.3-3.29,3.05-2.19,5.52-5.72,7.41-10.59.21-.56.84-.73,1.89-.52l8.93,1.88c.35.14.63.37.84.68.21.31.25.85.11,1.62-.84,3.13-2.54,6.36-5.1,9.7s-6.04,6.19-10.46,8.55c-4.41,2.36-9.6,3.55-15.55,3.55-7.08,0-13.24-1.65-18.5-4.95s-9.29-8-12.09-14.08c-2.8-6.08-4.2-13.12-4.2-21.12s1.4-15.05,4.2-20.97c2.8-5.91,6.81-10.45,12.03-13.61,5.22-3.16,11.37-4.75,18.44-4.75,5.11,0,9.86.99,14.24,2.97Z"/>
  </g>
</svg>