<?xml version="1.0" encoding="UTF-8"?>
<svg id="Layer_1" data-name="Layer 1" xmlns="http://www.w3.org/2000/svg" viewBox="0 0 600 500">
  <defs>
    <style>
      .cls-1 {
        fill: #434039;
      }
    </style>
  </defs>
  <g>
    <path class="cls-1" d="M275.6,42.38c-20.21,55.18,43.51,69.27,81.63,100.92,29.05,29.99,32.14,63.05,7.52,103.39-10.49,16.71-22.84,23.99-28.68,27.29-1.06.6,1.08-5.11,4.78-14.45,33.05-78.25-23.08-78.64-68.52-107.02-53.26-29.6-29.58-98.71,3.27-110.14Z"/>
    <path class="cls-1" d="M188.52,126.74c10.07,11.69,19.09,32.3,36.5,37.34,16.09,8.73,49.16,8.21,64.95,14.63,19.89,5.36,34.23,33.19,10.65,47.03-16.78,9.72-54.1-.99-71.34-13.21-35.72-17.69-45.79-58.58-40.76-85.78Z"/>
  </g>
  <g>
    <path class="cls-1" d="M53.59,396.97c0-.46.25-.68.74-.68h33.1c.49,0,.74.23.74.68v3.23c0,.25-.06.41-.18.5-.12.08-.31.12-.55.12h-12.49c-.25,0-.42.04-.52.12-.1.08-.15.25-.15.5v40.13c0,.54-.25.81-.74.81h-4.43c-.49,0-.74-.27-.74-.81v-40.06c0-.29-.04-.48-.12-.56-.08-.08-.25-.12-.49-.12h-13.41c-.25,0-.43-.04-.55-.12-.12-.08-.18-.25-.18-.5v-3.23Z"/>
    <path class="cls-1" d="M106.03,396.47c.1-.12.3-.19.58-.19h27.62c.41,0,.62.23.62.68v3.17c0,.5-.27.75-.8.75h-21.47c-.33,0-.54.05-.65.16-.1.1-.15.3-.15.59v14.54c0,.46.23.68.68.68h15.93c.45,0,.68.23.68.68v3.29c0,.37-.23.56-.68.56h-15.93c-.45,0-.68.23-.68.68v15.09c0,.25.04.41.12.5.08.08.25.12.49.12h22.58c.25,0,.42.04.52.12.1.08.15.25.15.5v3.29c0,.46-.23.68-.68.68h-28.24c-.33,0-.55-.06-.68-.19-.12-.12-.18-.35-.18-.68v-44.35c0-.33.05-.56.15-.68Z"/>
    <path class="cls-1" d="M175.91,397.4c2.44,1.16,4.46,2.71,6.06,4.66,1.6,1.95,2.56,4.06,2.89,6.34l.06.43c0,.17-.05.29-.15.37-.1.08-.22.12-.34.12l-4.61.37h-.12c-.12,0-.23-.05-.31-.15-.08-.1-.14-.26-.18-.47-.62-2.69-1.89-4.84-3.81-6.46-1.93-1.62-4.27-2.42-7.01-2.42-4.31,0-7.6,1.61-9.87,4.81-2.28,3.21-3.41,8-3.41,14.38s1.14,10.96,3.41,14.13,5.67,4.75,10.18,4.75c2.91,0,5.34-.72,7.29-2.14,1.95-1.43,3.52-3.67,4.71-6.74.08-.29.33-.37.74-.25l3.63.87c.29.08.39.37.31.87-.62,2.07-1.68,4.03-3.2,5.87-1.52,1.84-3.45,3.34-5.78,4.5-2.34,1.16-4.98,1.74-7.94,1.74-4.06,0-7.55-.95-10.46-2.86-2.91-1.9-5.15-4.64-6.71-8.2-1.56-3.56-2.34-7.78-2.34-12.67s.77-9.1,2.31-12.64c1.54-3.54,3.75-6.25,6.64-8.14,2.89-1.88,6.33-2.83,10.3-2.83,2.71,0,5.28.58,7.72,1.74Z"/>
    <path class="cls-1" d="M210.03,420.82c-.16,0-.29.05-.37.15-.08.1-.12.22-.12.34v20.12c0,.33-.08.57-.25.71-.16.15-.43.22-.8.22h-4c-.33,0-.55-.06-.68-.19-.12-.12-.18-.35-.18-.68v-44.35c0-.58.25-.87.74-.87h4.43c.49,0,.74.27.74.81v18.26c0,.29.05.49.15.59.1.1.28.15.52.15h20.18c.41,0,.62-.25.62-.75v-18.32c0-.5.23-.75.68-.75h4.49c.29,0,.48.06.58.19.1.12.15.35.15.68v44.35c0,.58-.29.87-.86.87h-4c-.37,0-.64-.07-.8-.22-.16-.14-.25-.38-.25-.71v-20.06c0-.37-.18-.56-.55-.56h-20.42Z"/>
    <path class="cls-1" d="M292.03,396.28c.25,0,.42.05.52.16.1.1.15.3.15.59v44.6c0,.5-.27.75-.8.75h-3.01c-.33,0-.58-.03-.77-.09-.18-.06-.36-.2-.52-.4l-23.75-34.85c-.16-.29-.32-.41-.46-.37-.14.04-.22.19-.22.43v34.47c0,.54-.29.81-.86.81h-3.45c-.53,0-.8-.27-.8-.81v-44.41c0-.33.05-.56.15-.68.1-.12.32-.19.65-.19h3.51c.33,0,.57.04.74.12.16.08.35.25.55.5l23.07,34.1c.2.25.39.37.55.37.25,0,.37-.19.37-.56v-33.79c0-.5.25-.75.74-.75h3.63Z"/>
    <path class="cls-1" d="M320.97,440.26c-2.93-1.82-5.18-4.49-6.74-8.01-1.56-3.52-2.34-7.76-2.34-12.73s.79-9.31,2.37-12.89c1.58-3.58,3.83-6.3,6.77-8.17,2.93-1.86,6.41-2.8,10.43-2.8s7.43.93,10.37,2.8c2.93,1.86,5.18,4.58,6.74,8.14,1.56,3.56,2.34,7.85,2.34,12.86s-.78,9.21-2.34,12.73c-1.56,3.52-3.8,6.2-6.74,8.04-2.93,1.84-6.41,2.76-10.43,2.76s-7.5-.91-10.43-2.73ZM341.46,433.8c2.19-3.11,3.29-7.87,3.29-14.29s-1.12-11.4-3.35-14.57c-2.24-3.17-5.55-4.75-9.93-4.75s-7.82,1.59-10.06,4.78c-2.24,3.19-3.35,8.03-3.35,14.53s1.12,11.18,3.35,14.29c2.23,3.1,5.61,4.66,10.12,4.66s7.74-1.55,9.93-4.66Z"/>
    <path class="cls-1" d="M370.83,396.28h4.43c.49,0,.74.27.74.81v40.06c0,.25.04.41.12.5.08.08.25.12.49.12h21.29c.25,0,.43.04.55.12.12.08.18.25.18.5v3.29c0,.46-.25.68-.74.68h-26.94c-.33,0-.55-.06-.68-.19-.12-.12-.19-.35-.19-.68v-44.35c0-.58.25-.87.74-.87Z"/>
    <path class="cls-1" d="M419.28,440.26c-2.93-1.82-5.18-4.49-6.74-8.01-1.56-3.52-2.34-7.76-2.34-12.73s.79-9.31,2.37-12.89c1.58-3.58,3.83-6.3,6.77-8.17,2.93-1.86,6.41-2.8,10.43-2.8s7.43.93,10.37,2.8c2.93,1.86,5.18,4.58,6.74,8.14,1.56,3.56,2.34,7.85,2.34,12.86s-.78,9.21-2.34,12.73c-1.56,3.52-3.8,6.2-6.74,8.04-2.93,1.84-6.41,2.76-10.43,2.76s-7.5-.91-10.43-2.73ZM439.76,433.8c2.19-3.11,3.29-7.87,3.29-14.29s-1.12-11.4-3.35-14.57c-2.24-3.17-5.55-4.75-9.93-4.75s-7.82,1.59-10.06,4.78c-2.24,3.19-3.35,8.03-3.35,14.53s1.12,11.18,3.35,14.29c2.23,3.1,5.61,4.66,10.12,4.66s7.74-1.55,9.93-4.66Z"/>
    <path class="cls-1" d="M475.35,440.17c-2.87-1.88-5.08-4.59-6.61-8.11-1.54-3.52-2.31-7.7-2.31-12.55s.79-9.19,2.37-12.8c1.58-3.6,3.82-6.35,6.74-8.23,2.91-1.88,6.31-2.83,10.21-2.83,2.79,0,5.4.58,7.84,1.74,2.44,1.16,4.45,2.69,6.03,4.6s2.53,3.93,2.86,6.09v.37c0,.17-.03.29-.09.37-.06.08-.2.17-.4.25l-4.43.68h-.12c-.25,0-.43-.21-.55-.62-.45-2.53-1.7-4.65-3.75-6.37-2.05-1.72-4.53-2.58-7.44-2.58-4.22,0-7.46,1.61-9.72,4.84-2.26,3.23-3.38,7.93-3.38,14.1s1.13,11.3,3.38,14.5c2.26,3.21,5.54,4.81,9.84,4.81,2.5,0,4.65-.56,6.46-1.68,1.8-1.12,3.17-2.55,4.09-4.29.92-1.74,1.45-3.5,1.57-5.28v-3.85c0-.37-.21-.56-.61-.56h-10.03c-.45,0-.68-.21-.68-.62v-2.67c0-.37.21-.56.61-.56l15.26.06c.61,0,.92.25.92.75v21.8c0,.54-.25.81-.74.81h-1.41c-.33,0-.57-.04-.74-.12-.16-.08-.29-.29-.37-.62l-.68-5.78c-.04-.16-.11-.25-.22-.25s-.22.1-.34.31c-1.31,2.11-3.07,3.82-5.26,5.12-2.19,1.3-4.91,1.96-8.15,1.96-3.9,0-7.28-.94-10.15-2.83Z"/>
    <path class="cls-1" d="M553.45,396.53c.1.17.07.37-.09.62l-14.64,24.72c-.16.25-.27.51-.31.78-.04.27-.06.69-.06,1.27v17.39c0,.37-.09.64-.28.81-.18.17-.48.25-.89.25h-3.69c-.66,0-.99-.31-.99-.93v-17.27c0-.37-.03-.66-.09-.87-.06-.21-.2-.48-.4-.81l-14.83-25.22c-.12-.21-.18-.37-.18-.5,0-.33.29-.5.86-.5h4.43c.37,0,.63.05.77.16.14.1.32.3.52.59l11.44,19.88c.25.5.47.75.68.75.16,0,.39-.21.68-.62l11.38-20c.16-.29.33-.49.49-.59.16-.1.43-.16.8-.16h3.81c.29,0,.48.08.58.25Z"/>
  </g>
  <g>
    <path class="cls-1" d="M51.54,381c-.36-.4-.54-.92-.54-1.57v-76.16c0-.65.13-1.12.38-1.4.25-.29.71-.43,1.36-.43h18.39c.72,0,1.25.11,1.58.32.33.22.56.61.71,1.19l19.16,50.99c.22.58.47.86.76.86s.54-.32.76-.97l18.61-50.34c.36-1.37,1.09-2.05,2.18-2.05h19.05c1.02,0,1.52.58,1.52,1.73v76.16c0,.79-.18,1.37-.54,1.73-.36.36-.98.54-1.85.54h-11.65c-.73,0-1.25-.14-1.58-.43-.33-.29-.49-.79-.49-1.51v-56.5c0-.43-.11-.65-.33-.65-.07,0-.25.25-.54.76l-20.68,56.71c-.29,1.08-1.02,1.62-2.18,1.62h-7.73c-1.16,0-1.96-.54-2.39-1.62l-20.46-56.06c-.07-.5-.26-.76-.54-.76-.22,0-.33.29-.33.86v55.85c0,.65-.13,1.1-.38,1.35-.25.25-.74.38-1.47.38h-9.25c-.65,0-1.16-.2-1.52-.59Z"/>
    <path class="cls-1" d="M232.66,302.41c0,.29-.11.61-.33.97l-25.69,42.13c-.36.5-.58,1.03-.65,1.57-.07.54-.11,1.64-.11,3.29v28.84c0,.86-.2,1.48-.6,1.84-.4.36-1.11.54-2.12.54h-11.21c-.8,0-1.36-.16-1.69-.49-.33-.32-.49-.85-.49-1.57v-29.38c0-.79-.07-1.42-.22-1.89-.15-.47-.44-1.06-.87-1.78l-25.9-42.78c-.29-.36-.44-.72-.44-1.08,0-.79.62-1.19,1.85-1.19h13.39c.8,0,1.38.11,1.74.32.36.22.76.69,1.2,1.4l17.52,30.35c.44.79.8,1.19,1.09,1.19.22,0,.58-.36,1.09-1.08l17.31-30.46c.36-.72.72-1.19,1.09-1.4.36-.22.94-.32,1.74-.32h10.88c.94,0,1.42.32,1.42.97Z"/>
    <path class="cls-1" d="M254.97,303.17c0-1.15.62-1.73,1.85-1.73h61.17c1.23,0,1.85.58,1.85,1.73v8.43c0,1.01-.58,1.51-1.74,1.51h-20.9c-.44,0-.74.07-.92.22-.18.15-.27.43-.27.86v65.57c0,1.23-.54,1.84-1.63,1.84h-12.95c-1.02,0-1.52-.58-1.52-1.73v-65.46c0-.5-.09-.85-.27-1.03-.18-.18-.49-.27-.92-.27h-21.88c-.65,0-1.13-.11-1.41-.32-.29-.22-.44-.61-.44-1.19v-8.43Z"/>
    <path class="cls-1" d="M364.46,346.27c-.87,0-1.31.4-1.31,1.19v31.98c0,1.44-.84,2.16-2.5,2.16h-11.54c-.8,0-1.34-.16-1.63-.49-.29-.32-.43-.81-.43-1.46v-76.37c0-1.22.54-1.84,1.63-1.84h12.95c1.02,0,1.52.58,1.52,1.73v29.06c0,1.15.51,1.73,1.52,1.73h28.73c1.02,0,1.52-.54,1.52-1.62v-29.17c0-1.15.51-1.73,1.52-1.73h12.95c1.09,0,1.63.61,1.63,1.84v76.37c0,1.3-.69,1.94-2.07,1.94h-11.54c-.87,0-1.51-.16-1.91-.49-.4-.32-.6-.88-.6-1.67v-31.98c0-.79-.44-1.19-1.31-1.19h-29.17Z"/>
    <path class="cls-1" d="M457.41,301.44c1.02,0,1.52.58,1.52,1.73v76.05c0,.86-.2,1.48-.6,1.84-.4.36-1.07.54-2.01.54h-11.32c-.87,0-1.45-.14-1.74-.43-.29-.29-.43-.79-.43-1.51v-76.37c0-1.22.54-1.84,1.63-1.84h12.95Z"/>
    <path class="cls-1" d="M538.33,303.44c4.53,2.05,8.27,4.84,11.21,8.37,2.94,3.53,4.77,7.45,5.5,11.77.07.36.11.79.11,1.3,0,.43-.09.72-.27.86-.18.15-.49.25-.93.32l-12.41.86c-.51,0-.85-.09-1.03-.27-.18-.18-.34-.59-.49-1.24-.87-4.18-2.69-7.51-5.44-9.99-2.76-2.48-6.28-3.73-10.56-3.73-12.99,0-19.48,9.87-19.48,29.6,0,10.01,1.63,17.41,4.9,22.2,3.26,4.79,8.23,7.18,14.91,7.18,4.64,0,8.54-1.13,11.7-3.4,3.16-2.27,5.72-5.92,7.67-10.97.22-.58.87-.76,1.96-.54l9.25,1.94c.36.14.65.38.87.7.22.32.25.88.11,1.67-.87,3.24-2.63,6.59-5.28,10.05-2.65,3.46-6.26,6.41-10.83,8.86-4.57,2.45-9.94,3.67-16.11,3.67-7.33,0-13.71-1.71-19.16-5.13-5.44-3.42-9.62-8.28-12.52-14.58-2.9-6.3-4.35-13.59-4.35-21.87s1.45-15.59,4.35-21.71c2.9-6.12,7.06-10.82,12.46-14.1,5.4-3.28,11.77-4.92,19.1-4.92,5.3,0,10.21,1.03,14.75,3.08Z"/>
  </g>
  <path class="cls-1" d="M203.97,216.08c-.53-1.78,5.29,4.31,17.31,11.27,20.23,9.79,63.74,21.57,89.06,2.89,17.49-13.78,12.62-38.47,15.5-33.94,50.75,75.92-99.7,114.81-121.87,19.77Z"/>
</svg>